<svg width="13" height="16" viewBox="0 0 13 16" fill="none" xmlns="http://www.w3.org/2000/svg">
<path d="M6.5 0C4.77609 0 3.12279 0.674238 1.90381 1.87439C0.68482 3.07454 0 4.70229 0 6.39956C0 11.3752 4.10313 11.3352 5.08625 14.223L5.50063 15.4549C5.55716 15.6205 5.66718 15.7633 5.8139 15.8615C5.96061 15.9598 6.13595 16.008 6.31313 15.9989H6.76813C6.9453 16.008 7.12064 15.9598 7.26735 15.8615C7.41407 15.7633 7.52409 15.6205 7.58063 15.4549L7.995 14.223C8.9375 11.3352 13 11.3752 13 6.39956C13 4.70229 12.3152 3.07454 11.0962 1.87439C9.87721 0.674238 8.22391 0 6.5 0ZM6.5 8.7994C6.01791 8.7994 5.54664 8.65865 5.1458 8.39496C4.74495 8.13126 4.43253 7.75646 4.24804 7.31794C4.06355 6.87943 4.01528 6.3969 4.10934 5.93138C4.20339 5.46586 4.43554 5.03825 4.77643 4.70262C5.11732 4.367 5.55164 4.13844 6.02447 4.04584C6.4973 3.95324 6.9874 4.00077 7.43279 4.1824C7.87819 4.36404 8.25887 4.67164 8.52671 5.06629C8.79454 5.46094 8.9375 5.92492 8.9375 6.39956C8.9375 7.03604 8.68069 7.64645 8.22357 8.09651C7.76645 8.54656 7.14647 8.7994 6.5 8.7994Z" fill="#4D4D4D"/>
</svg>
