<svg width="12" height="13" viewBox="0 0 12 13" fill="none" xmlns="http://www.w3.org/2000/svg">
<path d="M10.6667 1.66668H10V0.666677C10 0.578271 9.96488 0.493487 9.90237 0.430975C9.83986 0.368463 9.75507 0.333344 9.66667 0.333344H9C8.91159 0.333344 8.82681 0.368463 8.7643 0.430975C8.70179 0.493487 8.66667 0.578271 8.66667 0.666677V1.66668H3.33333V0.666677C3.33333 0.578271 3.29821 0.493487 3.2357 0.430975C3.17319 0.368463 3.08841 0.333344 3 0.333344H2.33333C2.24493 0.333344 2.16014 0.368463 2.09763 0.430975C2.03512 0.493487 2 0.578271 2 0.666677V1.66668H1.33333C0.979711 1.66668 0.640573 1.80715 0.390524 2.0572C0.140476 2.30725 0 2.64639 0 3.00001V11.6667C0 12.0203 0.140476 12.3594 0.390524 12.6095C0.640573 12.8595 0.979711 13 1.33333 13H10.6667C11.0203 13 11.3594 12.8595 11.6095 12.6095C11.8595 12.3594 12 12.0203 12 11.6667V3.00001C12 2.64639 11.8595 2.30725 11.6095 2.0572C11.3594 1.80715 11.0203 1.66668 10.6667 1.66668ZM10.6667 11.6667H1.33333V4.33334H10.6667V11.6667ZM5.66667 7.00001H6.33333C6.42174 7.00001 6.50652 6.96489 6.56904 6.90238C6.63155 6.83987 6.66667 6.75508 6.66667 6.66668V6.00001C6.66667 5.9116 6.63155 5.82682 6.56904 5.76431C6.50652 5.7018 6.42174 5.66668 6.33333 5.66668H5.66667C5.57826 5.66668 5.49348 5.7018 5.43096 5.76431C5.36845 5.82682 5.33333 5.9116 5.33333 6.00001V6.66668C5.33333 6.75508 5.36845 6.83987 5.43096 6.90238C5.49348 6.96489 5.57826 7.00001 5.66667 7.00001ZM8.33333 7.00001H9C9.08841 7.00001 9.17319 6.96489 9.2357 6.90238C9.29821 6.83987 9.33333 6.75508 9.33333 6.66668V6.00001C9.33333 5.9116 9.29821 5.82682 9.2357 5.76431C9.17319 5.7018 9.08841 5.66668 9 5.66668H8.33333C8.24493 5.66668 8.16014 5.7018 8.09763 5.76431C8.03512 5.82682 8 5.9116 8 6.00001V6.66668C8 6.75508 8.03512 6.83987 8.09763 6.90238C8.16014 6.96489 8.24493 7.00001 8.33333 7.00001ZM3 7.00001H3.66667C3.75507 7.00001 3.83986 6.96489 3.90237 6.90238C3.96488 6.83987 4 6.75508 4 6.66668V6.00001C4 5.9116 3.96488 5.82682 3.90237 5.76431C3.83986 5.7018 3.75507 5.66668 3.66667 5.66668H3C2.91159 5.66668 2.82681 5.7018 2.7643 5.76431C2.70179 5.82682 2.66667 5.9116 2.66667 6.00001V6.66668C2.66667 6.75508 2.70179 6.83987 2.7643 6.90238C2.82681 6.96489 2.91159 7.00001 3 7.00001ZM5.66667 9.66668H6.33333C6.42174 9.66668 6.50652 9.63156 6.56904 9.56905C6.63155 9.50653 6.66667 9.42175 6.66667 9.33334V8.66668C6.66667 8.57827 6.63155 8.49349 6.56904 8.43097C6.50652 8.36846 6.42174 8.33334 6.33333 8.33334H5.66667C5.57826 8.33334 5.49348 8.36846 5.43096 8.43097C5.36845 8.49349 5.33333 8.57827 5.33333 8.66668V9.33334C5.33333 9.42175 5.36845 9.50653 5.43096 9.56905C5.49348 9.63156 5.57826 9.66668 5.66667 9.66668ZM3 9.66668H3.66667C3.75507 9.66668 3.83986 9.63156 3.90237 9.56905C3.96488 9.50653 4 9.42175 4 9.33334V8.66668C4 8.57827 3.96488 8.49349 3.90237 8.43097C3.83986 8.36846 3.75507 8.33334 3.66667 8.33334H3C2.91159 8.33334 2.82681 8.36846 2.7643 8.43097C2.70179 8.49349 2.66667 8.57827 2.66667 8.66668V9.33334C2.66667 9.42175 2.70179 9.50653 2.7643 9.56905C2.82681 9.63156 2.91159 9.66668 3 9.66668Z" fill="#4D4D4D"/>
</svg>
