<svg width="44" height="44" viewBox="0 0 44 44" fill="none" xmlns="http://www.w3.org/2000/svg">
<circle cx="21.5698" cy="21.5698" r="21.5698" fill="#6616CB" fill-opacity="0.1"/>
<g clip-path="url(#clip0)">
<path d="M20.2243 20.2689L20.3279 18.7164C20.3788 18.032 20.5858 17.3684 20.933 16.7764L21.3362 16.092C21.3857 16.008 21.3998 15.9077 21.3754 15.8133C21.351 15.7188 21.29 15.638 21.206 15.5885L19.3048 14.4684C19.2207 14.4189 19.1205 14.4048 19.026 14.4292C18.9316 14.4536 18.8507 14.5145 18.8012 14.5986L18.398 15.283C18.0485 15.8736 17.5683 16.3763 16.9944 16.7525L15.6867 17.5956C15.3042 17.8414 14.9853 18.1742 14.7559 18.5668L11.3733 24.3085C11.2743 24.4766 11.2461 24.6771 11.2949 24.866C11.3437 25.0549 11.4656 25.2166 11.6337 25.3156L15.4361 27.5558C15.6042 27.6548 15.8047 27.683 15.9936 27.6342C16.1824 27.5853 16.3442 27.4635 16.4432 27.2954L19.8259 21.5537C20.0581 21.1629 20.1946 20.7226 20.2243 20.2689ZM15.6056 25.0945L13.7044 23.9744C13.6203 23.9249 13.5594 23.8441 13.535 23.7496C13.5106 23.6552 13.5247 23.5549 13.5742 23.4709L15.441 20.3022C15.4905 20.2182 15.5714 20.1572 15.6658 20.1328C15.7602 20.1084 15.8605 20.1225 15.9445 20.172L17.8457 21.2921C17.9298 21.3416 17.9907 21.4225 18.0151 21.5169C18.0395 21.6113 18.0254 21.7116 17.9759 21.7957L16.1091 24.9643C16.0596 25.0484 15.9787 25.1093 15.8843 25.1337C15.7899 25.1581 15.6896 25.144 15.6056 25.0945ZM22.4563 14.1908L22.643 13.8739C22.742 13.7058 22.7702 13.5053 22.7213 13.3164C22.6725 13.1276 22.5507 12.9658 22.3826 12.8668L21.1151 12.1201C20.947 12.0211 20.7465 11.9929 20.5576 12.0417C20.3688 12.0905 20.207 12.2124 20.108 12.3805L19.9213 12.6973C19.8718 12.7814 19.8577 12.8816 19.8821 12.9761C19.9065 13.0705 19.9675 13.1514 20.0515 13.2009L21.9527 14.321C22.0368 14.3705 22.137 14.3846 22.2315 14.3602C22.3259 14.3358 22.4068 14.2748 22.4563 14.1908Z" fill="#6616CB"/>
<path d="M28.5819 22.5177L27.3807 21.7641C26.8534 21.4277 26.4101 20.9749 26.0849 20.4406L25.7097 19.8214C25.6637 19.7454 25.5893 19.6908 25.5029 19.6696C25.4166 19.6484 25.3254 19.6624 25.2494 19.7085L23.5293 20.7507C23.4533 20.7967 23.3987 20.8711 23.3775 20.9575C23.3563 21.0438 23.3703 21.135 23.4163 21.211L23.7915 21.8303C24.1146 22.3658 24.3107 22.9683 24.3648 23.5914L24.4767 25.0051C24.5089 25.4183 24.6382 25.818 24.8543 26.1716L28.0018 31.3661C28.0939 31.5182 28.2427 31.6274 28.4154 31.6698C28.588 31.7122 28.7705 31.6842 28.9225 31.5921L32.3626 29.5077C32.5147 29.4155 32.6239 29.2668 32.6663 29.0941C32.7087 28.9214 32.6807 28.739 32.5886 28.5869L29.4411 23.3923C29.2277 23.0371 28.9333 22.7374 28.5819 22.5177ZM30.4604 28.3087L28.7404 29.3509C28.6643 29.397 28.5731 29.411 28.4868 29.3898C28.4004 29.3686 28.326 29.314 28.28 29.238L26.543 26.3712C26.4969 26.2952 26.4829 26.2039 26.5041 26.1176C26.5253 26.0313 26.5799 25.9569 26.6559 25.9108L28.376 24.8686C28.452 24.8225 28.5432 24.8086 28.6296 24.8297C28.7159 24.8509 28.7903 24.9056 28.8364 24.9816L30.5734 27.8483C30.6195 27.9244 30.6334 28.0156 30.6122 28.1019C30.5911 28.1883 30.5364 28.2626 30.4604 28.3087ZM24.6675 18.1014L24.4938 17.8147C24.4017 17.6626 24.2529 17.5534 24.0802 17.511C23.9076 17.4687 23.7251 17.4966 23.5731 17.5887L22.4264 18.2836C22.2743 18.3757 22.1651 18.5245 22.1227 18.6971C22.0803 18.8698 22.1083 19.0522 22.2004 19.2043L22.3741 19.491C22.4202 19.567 22.4946 19.6216 22.5809 19.6428C22.6672 19.664 22.7585 19.65 22.8345 19.604L24.5546 18.5617C24.6306 18.5157 24.6852 18.4413 24.7064 18.355C24.7276 18.2686 24.7136 18.1774 24.6675 18.1014Z" fill="#6616CB"/>
</g>
<defs>
<clipPath id="clip0">
<rect x="11" y="11" width="22.186" height="22.186" fill="white"/>
</clipPath>
</defs>
</svg>